<svg width="24" height="24" viewBox="0 0 24 24" fill="none" xmlns="http://www.w3.org/2000/svg">
  <path d="M11.9258 7.2621C13.036 7.2621 13.7029 7.85427 13.7029 8.85317C13.7029 10.6673 10.4646 11.1674 10.4646 13.3692C10.4646 13.9613 10.8522 14.6085 11.6483 14.6085C12.8697 14.6085 12.722 13.7017 13.1664 13.0533C13.758 12.1842 16.516 11.2589 16.516 8.85257C16.516 6.24406 14.185 5.15125 11.8158 5.15125C9.55897 5.15125 7.4852 6.76145 7.4852 8.57563C7.4852 9.31554 8.04088 9.70433 8.68867 9.70433C10.4825 9.70493 9.55777 7.2621 11.9258 7.2621Z" fill="#3463F8"/>
  <path d="M13.24 17.3301C13.24 16.4968 12.5551 15.8126 11.7225 15.8126C10.8898 15.8126 10.205 16.498 10.205 17.3301C10.205 18.1633 10.8898 18.8476 11.7225 18.8476C12.5551 18.8476 13.24 18.1633 13.24 17.3301Z" fill="#3463F8"/>
  <path d="M24 12C24 5.38331 18.6167 0 12 0C5.38331 0 0 5.38331 0 12C0 18.6167 5.38331 24 12 24C18.6167 24 24 18.6173 24 12ZM1.19629 12C1.19629 6.04307 6.04307 1.19629 12 1.19629C17.9569 1.19629 22.8037 6.04307 22.8037 12C22.8037 17.9569 17.9569 22.8037 12 22.8037C6.04307 22.8037 1.19629 17.9569 1.19629 12Z" fill="#3463F8"/>
</svg>