<svg width="165" height="22" viewBox="0 0 165 22" fill="none" xmlns="http://www.w3.org/2000/svg">
<g clip-path="url(#clip0_1838_10308)">
<path d="M57.6692 22C57.8702 21.3964 58.1174 20.809 58.4081 20.2429C60.9198 14.6378 63.4315 9.03275 65.9431 3.42766C66.1357 2.9477 66.3622 2.48199 66.6213 2.0341C67.2157 1.06659 68.1716 0.373428 69.2787 0.106754C69.3948 0.0750163 69.5078 0.034623 69.6236 0H71.1451C71.7844 0.107308 72.3924 0.352789 72.926 0.719174C73.4598 1.08556 73.9065 1.56394 74.2346 2.12066C74.4287 2.44957 74.5909 2.80157 74.7591 3.14781C76.4283 6.57932 78.0966 10.0176 79.7639 13.4626C81.1434 16.3074 82.521 19.1532 83.8967 22H76.8687C76.4833 21.1344 76.0834 20.2458 75.7096 19.3542C75.6721 19.2128 75.5839 19.0898 75.4616 19.0085C75.3395 18.9272 75.1916 18.8932 75.046 18.9128C72.7998 18.9301 70.5539 18.9128 68.3079 18.9128C68.05 18.9128 67.8733 18.9128 68.018 18.5579C68.6886 17.0922 69.3484 15.6217 69.9974 14.1464C70.031 14.0573 70.094 13.9823 70.1764 13.934C70.2586 13.8857 70.355 13.867 70.4497 13.8809C71.293 13.8809 72.1392 13.8809 72.9853 13.8809C73.2752 13.8809 73.3477 13.829 73.2172 13.5376C72.8173 12.6374 72.4405 11.7285 72.0581 10.8197L70.806 7.88249C70.7163 8.05271 70.6524 8.17102 70.6002 8.28065C69.2151 11.3256 67.8308 14.3685 66.4474 17.4096C65.7576 18.9301 65.0765 20.4564 64.3898 21.9797L57.6692 22Z" fill="black"/>
<path d="M0 0.64829C0.136781 0.570039 0.295918 0.539571 0.452096 0.561732H5.08897C5.54687 0.561732 5.57295 0.587701 5.57295 1.06088C5.57295 3.38063 5.57295 5.70036 5.57295 8.02011V20.8566C5.57295 21.5029 5.57295 21.5029 4.9093 21.5029H0.527446C0.347469 21.5297 0.163538 21.5016 0 21.4221V0.64829Z" fill="black"/>
<path d="M158.861 14.1207V1.11974C158.861 0.626364 158.861 0.623478 159.36 0.623478C160.954 0.623478 162.548 0.623478 164.142 0.623478C164.478 0.623478 164.571 0.730234 164.571 1.05627C164.571 6.45458 164.571 11.85 164.571 17.2483C164.541 18.3094 164.137 19.3263 163.43 20.1203C162.722 20.9144 161.756 21.435 160.702 21.5905C158.917 21.833 157.514 21.1636 156.337 19.8594C153.958 17.2194 151.55 14.6083 149.156 11.9856C148.084 10.8103 147.013 9.63507 145.945 8.45982C145.858 8.36172 145.777 8.25496 145.678 8.13378C145.629 8.19648 145.594 8.26947 145.576 8.34736C145.559 8.42526 145.559 8.50608 145.577 8.58388C145.577 12.7059 145.577 16.829 145.577 20.9529C145.577 21.53 145.577 21.53 144.997 21.53C143.415 21.53 141.833 21.53 140.253 21.53C139.92 21.53 139.815 21.4261 139.815 21.0972C139.815 15.7104 139.789 10.3266 139.839 4.93981C139.853 3.07307 140.818 1.68525 142.54 0.92066C144.299 0.132987 145.991 0.386889 147.417 1.65928C148.576 2.70375 149.562 3.93864 150.622 5.08984C152.425 7.04892 154.21 9.01957 156.007 10.9844L158.861 14.1207Z" fill="black"/>
<path d="M98.4905 0.0666174H103.562C104.014 0.0666174 104.034 0.086814 104.034 0.531143C104.034 2.03532 104.034 3.53756 104.034 5.0379C104.034 5.5255 104.008 5.55147 103.524 5.55147H93.9608C92.5781 5.54849 91.2458 6.06767 90.2323 7.00426C89.219 7.94086 88.6002 9.22518 88.5005 10.5982C88.4009 11.9713 88.8279 13.3308 89.6954 14.4027C90.5631 15.4746 91.8068 16.1791 93.1755 16.374C93.5107 16.4182 93.8487 16.4394 94.1869 16.4375H103.533C104.026 16.4375 104.034 16.4375 104.034 16.9453C104.034 18.4225 104.034 19.9007 104.034 21.3799C104.034 21.8964 104.014 21.9195 103.516 21.9195C100.293 21.9195 97.0676 21.9714 93.845 21.9195C91.0685 21.8908 88.4061 20.8156 86.3939 18.9106C84.382 17.0057 83.1696 14.4124 83.0014 11.6531C82.8332 8.89387 83.7213 6.17361 85.4872 4.04028C87.2528 1.90695 89.7651 0.519025 92.5177 0.15606C93.6362 0.00314208 94.7606 0.0781583 95.8822 0.0695026C96.7516 0.0579617 97.6211 0.0666174 98.4905 0.0666174Z" fill="url(#paint0_linear_1838_10308)"/>
<path d="M112.191 0.130859C113.64 0.130859 115.112 0.130859 116.572 0.130859C120.253 0.165482 123.2 1.67735 125.397 4.59433C126.929 6.61167 127.679 9.11108 127.51 11.6343C127.365 14.1559 126.349 16.5504 124.636 18.4129C122.923 20.2755 120.616 21.492 118.105 21.8566C117.615 21.9222 117.122 21.9531 116.627 21.9492C113.428 21.9492 110.228 21.9492 107.029 21.9492C106.502 21.9492 106.499 21.9492 106.499 21.4326C106.499 19.9438 106.499 18.4521 106.499 16.9634C106.499 16.6143 106.618 16.5104 106.959 16.5104C110.097 16.5219 113.236 16.5219 116.375 16.5104C117.68 16.5283 118.951 16.1029 119.98 15.3044C122.452 13.3885 122.728 9.53387 120.546 7.3007C120.012 6.74114 119.367 6.29828 118.652 6.00024C117.937 5.70221 117.168 5.55554 116.393 5.56954C113.269 5.56954 110.142 5.56954 107.014 5.56954C106.51 5.56954 106.504 5.56954 106.504 5.0704V0.630006C106.504 0.139515 106.504 0.130859 107.018 0.130859H112.191Z" fill="url(#paint1_linear_1838_10308)"/>
<path d="M130.898 11.0359V1.08175C130.898 0.559527 130.898 0.556641 131.416 0.556641C132.938 0.556641 134.459 0.556641 135.981 0.556641C136.317 0.556641 136.445 0.654739 136.445 1.00674C136.445 7.68897 136.445 14.3702 136.445 21.0505C136.445 21.3939 136.337 21.5122 135.987 21.5093C134.441 21.4939 132.895 21.4939 131.35 21.5093C130.97 21.5093 130.886 21.3679 130.889 21.0188C130.908 17.695 130.911 14.3674 130.898 11.0359Z" fill="black"/>
<path d="M14.7633 8.06996C14.7011 8.22557 14.6802 8.39446 14.7024 8.56045C14.7024 12.6613 14.7024 16.7603 14.7024 20.8574C14.7024 21.5037 14.7024 21.5037 14.0387 21.5037H9.4888C8.97874 21.5037 8.97294 21.5037 8.97294 21.0103C8.97294 15.688 8.97294 10.3637 8.97294 5.03756C8.96919 4.12652 9.24056 3.23539 9.75187 2.4798C10.2632 1.72423 10.9908 1.13911 11.8403 0.800381C12.6898 0.46165 13.6219 0.38495 14.5157 0.580237C15.4096 0.775521 16.2238 1.23378 16.8527 1.89553C19.1712 4.39414 21.4549 6.92162 23.7529 9.43756C25.0514 10.861 26.3526 12.2824 27.6566 13.702C27.7263 13.777 27.7755 13.8837 27.9088 13.8981C28.016 13.7597 27.9668 13.6096 27.9668 13.4509C27.9668 9.37697 27.9668 5.30203 27.9668 1.22615C27.9668 0.562542 27.9668 0.562542 28.6479 0.562542H33.2093C33.7049 0.562542 33.7079 0.562542 33.7079 1.07034C33.7079 6.41959 33.7079 11.7688 33.7079 17.1181C33.7019 18.0321 33.4163 18.9226 32.8892 19.6711C32.3623 20.4195 31.6186 20.9903 30.7576 21.3075C29.9028 21.6222 28.9734 21.6778 28.0867 21.4674C27.2 21.2568 26.3959 20.7896 25.7759 20.1245L18.6148 12.294L15.0328 8.3758L14.7633 8.06996Z" fill="black"/>
<path d="M36.5207 10.9698V0.623295C36.5207 0.0462452 36.5207 0.0462452 37.1003 0.0462452C40.6852 0.0462452 44.2701 0.0462452 47.8551 0.0462452C50.6937 0.00232239 53.4394 1.05325 55.5175 2.97906C57.5955 4.90489 58.8447 7.55628 59.0039 10.3783C59.1387 12.7306 58.5063 15.0632 57.2005 17.0282C55.8948 18.9932 53.9859 20.4852 51.7588 21.2817C50.6126 21.7042 49.4018 21.9259 48.1797 21.9367C44.4615 21.9367 40.7432 21.9367 37.025 21.9367C36.541 21.9367 36.5207 21.9164 36.5207 21.4231C36.5188 17.9415 36.5188 14.4571 36.5207 10.9698ZM42.0967 11.0015C42.0967 12.6606 42.0967 14.3196 42.0967 15.9757C42.0967 16.3162 42.1922 16.4344 42.5457 16.4316C44.3454 16.4172 46.1423 16.4114 47.942 16.4316C49.3886 16.4595 50.7869 15.9142 51.8295 14.9156C52.8724 13.917 53.4739 12.547 53.5019 11.1068C53.53 9.6667 52.9821 8.27447 51.9792 7.23639C50.9763 6.19831 49.6 5.59942 48.1536 5.57149C46.2931 5.57149 44.4354 5.57149 42.5748 5.57149C42.1053 5.57149 42.1025 5.57149 42.1025 6.06487L42.0967 11.0015Z" fill="black"/>
</g>
<defs>
<linearGradient id="paint0_linear_1838_10308" x1="93.5079" y1="0.0585938" x2="87.5688" y2="19.3043" gradientUnits="userSpaceOnUse">
<stop stop-color="#3463F8"/>
<stop offset="1" stop-color="#214FDF"/>
</linearGradient>
<linearGradient id="paint1_linear_1838_10308" x1="117.016" y1="0.130859" x2="106.549" y2="19.8441" gradientUnits="userSpaceOnUse">
<stop stop-color="#3463F8"/>
<stop offset="1" stop-color="#214FDF"/>
</linearGradient>
<clipPath id="clip0_1838_10308">
<rect width="164.784" height="22" fill="white"/>
</clipPath>
</defs>
</svg>
