<svg width="106" height="54" viewBox="0 0 106 54" fill="none" xmlns="http://www.w3.org/2000/svg">
<path d="M36.8334 0.0197988H48.8782C49.9519 0.0197988 50 0.0696352 50 1.16604C50 4.87768 50 8.58457 50 12.2867C50 13.4899 49.938 13.554 48.7886 13.554H26.0758C22.7919 13.5467 19.6278 14.8278 17.2208 17.1389C14.8143 19.45 13.3447 22.6191 13.108 26.0072C12.8713 29.3952 13.8856 32.7501 15.9458 35.395C18.0065 38.04 20.9601 39.7783 24.2108 40.2593C25.0068 40.3684 25.8095 40.4207 26.6127 40.4159H48.809C49.9795 40.4159 50 40.4159 50 41.669C50 45.3141 50 48.9617 50 52.6117C50 53.886 49.9519 53.943 48.7681 53.943C41.1147 53.943 33.4542 54.0713 25.8008 53.943C19.2067 53.8722 12.8836 51.2192 8.10496 46.5186C3.32678 41.8179 0.447484 35.4189 0.0479371 28.6102C-0.35161 21.8016 1.75779 15.0892 5.9515 9.82506C10.1447 4.56093 16.1113 1.13614 22.6485 0.240504C25.3049 -0.13683 27.9752 0.0482768 30.6389 0.0269183C32.7037 -0.00155964 34.7686 0.0197988 36.8334 0.0197988Z" fill="url(#paint0_linear_1838_10238)"/>
<path d="M69.5297 0C72.974 0 76.4737 0 79.9457 0C88.6945 0.0856896 95.7005 3.82748 100.922 11.0469C104.563 16.0397 106.346 22.2256 105.944 28.4705C105.599 34.7113 103.186 40.6375 99.1136 45.2472C95.0407 49.857 89.5568 52.8677 83.5895 53.7702C82.4251 53.9325 81.2511 54.0088 80.0765 53.9992C72.4711 53.9992 64.8656 53.9992 57.2602 53.9992C56.0067 53.9992 56 53.9992 56 52.7207C56 49.0361 56 45.3442 56 41.6596C56 40.7956 56.2825 40.5385 57.0951 40.5385C64.5534 40.567 72.0142 40.567 79.4771 40.5385C82.5779 40.5828 85.6008 39.53 88.0469 37.5536C93.923 32.8121 94.5772 23.272 89.3902 17.745C88.1213 16.3601 86.5883 15.264 84.8892 14.5264C83.1896 13.7888 81.3608 13.4258 79.5181 13.4604C72.0922 13.4604 64.659 13.4604 57.2259 13.4604C56.0272 13.4604 56.0133 13.4604 56.0133 12.2251V1.23536C56.0133 0.0214225 56.0133 0 57.233 0H69.5297Z" fill="url(#paint1_linear_1838_10238)"/>
<defs>
<linearGradient id="paint0_linear_1838_10238" x1="25.0001" y1="7.21642e-08" x2="9.87795" y2="47.1637" gradientUnits="userSpaceOnUse">
<stop stop-color="#3463F8"/>
<stop offset="1" stop-color="#214FDF"/>
</linearGradient>
<linearGradient id="paint1_linear_1838_10238" x1="80.9998" y1="-6.39212e-07" x2="54.5184" y2="47.9038" gradientUnits="userSpaceOnUse">
<stop stop-color="#3463F8"/>
<stop offset="1" stop-color="#214FDF"/>
</linearGradient>
</defs>
</svg>
