<svg width="212" height="24" viewBox="0 0 212 24" fill="none" xmlns="http://www.w3.org/2000/svg">
<path d="M4.41418 7.00586C5.70389 7.00586 6.64498 7.27018 7.23742 7.79883C7.82987 8.32747 8.12609 9.06803 8.12609 10.0205C8.12609 10.4535 8.05774 10.8659 7.92102 11.2578C7.78886 11.6452 7.57011 11.9893 7.26477 12.29C6.95943 12.5863 6.55611 12.821 6.05481 12.9941C5.55806 13.1673 4.94511 13.2539 4.21594 13.2539H3.14953V17H1.50891V7.00586H4.41418ZM4.30481 8.36621H3.14953V11.8867H4.04504C4.56001 11.8867 4.99751 11.8275 5.35754 11.709C5.71757 11.5859 5.991 11.3923 6.17785 11.1279C6.3647 10.8636 6.45813 10.515 6.45813 10.082C6.45813 9.50326 6.28267 9.07259 5.93176 8.79004C5.5854 8.50749 5.04309 8.36621 4.30481 8.36621ZM18.8552 11.9893C18.8552 12.7594 18.7573 13.4613 18.5613 14.0947C18.3699 14.7236 18.0805 15.266 17.6931 15.7217C17.3058 16.1729 16.8204 16.5215 16.2371 16.7676C15.6537 17.0137 14.9701 17.1367 14.1863 17.1367C13.3888 17.1367 12.6961 17.0137 12.1082 16.7676C11.5248 16.5215 11.0395 16.1706 10.6521 15.7148C10.2693 15.2591 9.98219 14.7145 9.79078 14.0811C9.59938 13.4476 9.50367 12.7458 9.50367 11.9756C9.50367 10.9456 9.67229 10.0479 10.0095 9.28223C10.3513 8.51204 10.8686 7.91504 11.5613 7.49121C12.2586 7.06283 13.1381 6.84863 14.2 6.84863C15.239 6.84863 16.1026 7.06055 16.7908 7.48438C17.4789 7.9082 17.9939 8.50521 18.3357 9.27539C18.6821 10.041 18.8552 10.9456 18.8552 11.9893ZM11.2263 11.9893C11.2263 12.7594 11.3311 13.4271 11.5408 13.9922C11.7504 14.5527 12.0717 14.9857 12.5046 15.291C12.9421 15.5918 13.5027 15.7422 14.1863 15.7422C14.8744 15.7422 15.435 15.5918 15.8679 15.291C16.3009 14.9857 16.6199 14.5527 16.825 13.9922C17.03 13.4271 17.1326 12.7594 17.1326 11.9893C17.1326 10.818 16.8979 9.90202 16.4285 9.24121C15.9636 8.57585 15.2208 8.24316 14.2 8.24316C13.5164 8.24316 12.9535 8.39355 12.5115 8.69434C12.074 8.99512 11.7504 9.42578 11.5408 9.98633C11.3311 10.5423 11.2263 11.21 11.2263 11.9893ZM32.6811 7.00586L30.0697 17H28.2787L26.6107 11.0117C26.5697 10.8659 26.5242 10.6927 26.474 10.4922C26.4239 10.2917 26.3738 10.0866 26.3236 9.87695C26.2781 9.66732 26.237 9.47591 26.2006 9.30273C26.1687 9.125 26.1459 8.98828 26.1322 8.89258C26.1231 8.98828 26.1026 9.12272 26.0707 9.2959C26.0388 9.46908 26.0001 9.66048 25.9545 9.87012C25.9135 10.0752 25.8679 10.2803 25.8178 10.4854C25.7676 10.6859 25.7221 10.8636 25.6811 11.0186L24.0404 17H22.2563L19.6518 7.00586H21.2992L22.7416 12.8643C22.7872 13.0511 22.8327 13.2539 22.8783 13.4727C22.9285 13.6868 22.974 13.9033 23.015 14.1221C23.0606 14.3408 23.1016 14.555 23.1381 14.7646C23.1745 14.9697 23.2042 15.1566 23.227 15.3252C23.2497 15.152 23.2794 14.9606 23.3158 14.751C23.3523 14.5368 23.391 14.3203 23.432 14.1016C23.4776 13.8783 23.5232 13.6641 23.5688 13.459C23.6189 13.2539 23.669 13.0693 23.7191 12.9053L25.3461 7.00586H26.9457L28.6068 12.9258C28.657 13.0944 28.7048 13.2835 28.7504 13.4932C28.8005 13.7028 28.8484 13.917 28.8939 14.1357C28.9395 14.3545 28.9805 14.5664 29.017 14.7715C29.0535 14.9766 29.0831 15.1611 29.1059 15.3252C29.1378 15.1019 29.1788 14.8467 29.2289 14.5596C29.279 14.2725 29.336 13.9808 29.3998 13.6846C29.4636 13.3883 29.5274 13.1149 29.5912 12.8643L31.0268 7.00586H32.6811ZM39.6163 17H33.9561V7.00586H39.6163V8.38672H35.5967V11.1006H39.3633V12.4746H35.5967V15.6123H39.6163V17ZM44.446 7.00586C45.3073 7.00586 46.0182 7.11068 46.5788 7.32031C47.1439 7.52995 47.5632 7.84896 47.8366 8.27734C48.1146 8.70573 48.2536 9.25033 48.2536 9.91113C48.2536 10.4033 48.1624 10.8226 47.9802 11.1689C47.7979 11.5153 47.5586 11.8024 47.2624 12.0303C46.9662 12.2581 46.6494 12.4404 46.3122 12.5771L49.1491 17H47.2966L44.8835 12.9941H43.277V17H41.6364V7.00586H44.446ZM44.3366 8.37305H43.277V11.6406H44.4118C45.1729 11.6406 45.7243 11.4993 46.0661 11.2168C46.4124 10.9342 46.5856 10.5173 46.5856 9.96582C46.5856 9.38704 46.4011 8.97689 46.0319 8.73535C45.6673 8.49382 45.1022 8.37305 44.3366 8.37305ZM56.098 17H50.4378V7.00586H56.098V8.38672H52.0784V11.1006H55.845V12.4746H52.0784V15.6123H56.098V17ZM66.2324 11.9072C66.2324 13.0329 66.0227 13.974 65.6035 14.7305C65.1842 15.4824 64.5758 16.0498 63.7783 16.4326C62.9808 16.8109 62.0192 17 60.8935 17H58.1181V7.00586H61.1943C62.2288 7.00586 63.122 7.19271 63.874 7.56641C64.6259 7.93555 65.207 8.4847 65.6171 9.21387C66.0273 9.93848 66.2324 10.8363 66.2324 11.9072ZM64.5234 11.9551C64.5234 11.1348 64.3935 10.4603 64.1338 9.93164C63.8785 9.40299 63.5003 9.01107 62.999 8.75586C62.5022 8.49609 61.8893 8.36621 61.1601 8.36621H59.7588V15.626H60.9209C62.1285 15.626 63.0309 15.3184 63.6279 14.7031C64.2249 14.0879 64.5234 13.1719 64.5234 11.9551ZM71.7424 7.00586H74.716C76.0058 7.00586 76.9787 7.19271 77.635 7.56641C78.2912 7.9401 78.6194 8.58496 78.6194 9.50098C78.6194 9.88379 78.551 10.2301 78.4143 10.54C78.2821 10.8454 78.0884 11.0983 77.8332 11.2988C77.578 11.4948 77.2636 11.627 76.8899 11.6953V11.7637C77.2772 11.832 77.6213 11.9528 77.9221 12.126C78.2274 12.2992 78.4667 12.5475 78.6399 12.8711C78.8176 13.1947 78.9065 13.6139 78.9065 14.1289C78.9065 14.7396 78.7606 15.2591 78.469 15.6875C78.1819 16.1159 77.7694 16.4417 77.2317 16.665C76.6985 16.8883 76.065 17 75.3313 17H71.7424V7.00586ZM73.383 11.1279H74.9553C75.6981 11.1279 76.2131 11.0072 76.5002 10.7656C76.7873 10.5241 76.9309 10.1709 76.9309 9.70605C76.9309 9.2321 76.76 8.8903 76.4182 8.68066C76.081 8.47103 75.5432 8.36621 74.8049 8.36621H73.383V11.1279ZM73.383 12.4541V15.626H75.1125C75.8782 15.626 76.4159 15.4779 76.7258 15.1816C77.0357 14.8854 77.1907 14.4844 77.1907 13.9785C77.1907 13.6686 77.12 13.3997 76.9787 13.1719C76.842 12.944 76.6164 12.7686 76.302 12.6455C75.9875 12.5179 75.5637 12.4541 75.0305 12.4541H73.383ZM83.661 11.5654L86.0331 7.00586H87.8036L84.4813 13.1172V17H82.8475V13.1787L79.5184 7.00586H81.3026L83.661 11.5654Z" fill="#DADCE0"/>
<g clip-path="url(#clip0_1838_10317)">
<path d="M136.596 20C136.738 19.561 136.912 19.1338 137.116 18.7221C138.884 14.6457 140.653 10.5693 142.421 6.49285C142.556 6.14378 142.716 5.80508 142.898 5.47934C143.316 4.7757 143.989 4.27158 144.769 4.07764C144.85 4.05456 144.93 4.02518 145.012 4H146.083C146.533 4.07804 146.961 4.25657 147.336 4.52304C147.712 4.7895 148.026 5.13741 148.257 5.5423C148.394 5.78151 148.508 6.03751 148.627 6.28932C149.802 8.78496 150.976 11.2855 152.15 13.7909C153.121 15.8599 154.091 17.9296 155.059 20H150.112C149.84 19.3705 149.559 18.7242 149.296 18.0758C149.269 17.9729 149.207 17.8835 149.121 17.8244C149.035 17.7652 148.931 17.7405 148.829 17.7548C147.247 17.7673 145.666 17.7548 144.085 17.7548C143.904 17.7548 143.779 17.7548 143.881 17.4967C144.353 16.4307 144.818 15.3612 145.275 14.2883C145.298 14.2235 145.343 14.169 145.401 14.1338C145.459 14.0987 145.526 14.0851 145.593 14.0952C146.187 14.0952 146.782 14.0952 147.378 14.0952C147.582 14.0952 147.633 14.0574 147.541 13.8455C147.26 13.1908 146.994 12.5298 146.725 11.8688L145.844 9.73272C145.781 9.85652 145.736 9.94256 145.699 10.0223C144.724 12.2368 143.749 14.4498 142.776 16.6615C142.29 17.7673 141.811 18.8774 141.327 19.9853L136.596 20Z" fill="#DADCE0"/>
<path d="M96 4.47237C96.0963 4.41546 96.2083 4.3933 96.3183 4.40942H99.5824C99.9047 4.40942 99.9231 4.42831 99.9231 4.77244C99.9231 6.45952 99.9231 8.1466 99.9231 9.83369V19.1693C99.9231 19.6393 99.9231 19.6393 99.4559 19.6393H96.3713C96.2446 19.6589 96.1151 19.6384 96 19.5806V4.47237Z" fill="#DADCE0"/>
<path d="M207.83 14.2696V4.81436C207.83 4.45554 207.83 4.45344 208.181 4.45344C209.303 4.45344 210.425 4.45344 211.548 4.45344C211.784 4.45344 211.849 4.53108 211.849 4.76819C211.849 8.69424 211.849 12.6182 211.849 16.5442C211.829 17.3159 211.544 18.0554 211.046 18.633C210.548 19.2105 209.868 19.5891 209.126 19.7022C207.869 19.8785 206.882 19.3917 206.054 18.4432C204.379 16.5232 202.683 14.6242 200.998 12.7168C200.243 11.862 199.49 11.0073 198.738 10.1526C198.677 10.0812 198.62 10.0036 198.55 9.91548C198.515 9.96108 198.491 10.0142 198.478 10.0708C198.466 10.1275 198.466 10.1862 198.479 10.2428C198.479 13.2407 198.479 16.2392 198.479 19.2385C198.479 19.6582 198.479 19.6582 198.071 19.6582C196.957 19.6582 195.843 19.6582 194.731 19.6582C194.497 19.6582 194.423 19.5826 194.423 19.3434C194.423 15.4258 194.405 11.5102 194.439 7.59259C194.45 6.23496 195.129 5.22564 196.341 4.66957C197.579 4.09672 198.77 4.28137 199.774 5.20675C200.59 5.96636 201.284 6.86446 202.03 7.7017C203.299 9.12649 204.556 10.5597 205.821 11.9887L207.83 14.2696Z" fill="#DADCE0"/>
<path d="M165.333 4.0488H168.903C169.221 4.0488 169.235 4.06349 169.235 4.38664C169.235 5.48059 169.235 6.57313 169.235 7.66428C169.235 8.0189 169.217 8.03779 168.876 8.03779H162.144C161.171 8.03562 160.233 8.41321 159.519 9.09437C158.806 9.77553 158.37 10.7096 158.3 11.7082C158.23 12.7067 158.531 13.6955 159.141 14.4751C159.752 15.2546 160.628 15.767 161.591 15.9087C161.827 15.9409 162.065 15.9563 162.303 15.9549H168.882C169.229 15.9549 169.235 15.9549 169.235 16.3242C169.235 17.3986 169.235 18.4736 169.235 19.5494C169.235 19.925 169.221 19.9418 168.87 19.9418C166.602 19.9418 164.331 19.9796 162.062 19.9418C160.108 19.9209 158.234 19.139 156.817 17.7536C155.401 16.3681 154.547 14.4821 154.429 12.4754C154.311 10.4686 154.936 8.49026 156.179 6.93875C157.422 5.38723 159.19 4.37783 161.128 4.11385C161.915 4.00264 162.707 4.0572 163.496 4.0509C164.108 4.04251 164.721 4.0488 165.333 4.0488Z" fill="#DADCE0"/>
<path d="M174.976 4.09375C175.996 4.09375 177.033 4.09375 178.061 4.09375C180.652 4.11893 182.726 5.21847 184.273 7.33992C185.351 8.80707 185.879 10.6248 185.76 12.4599C185.658 14.2938 184.943 16.0352 183.737 17.3898C182.531 18.7444 180.907 19.6291 179.14 19.8943C178.795 19.942 178.447 19.9645 178.1 19.9616C175.847 19.9616 173.595 19.9616 171.343 19.9616C170.971 19.9616 170.969 19.9616 170.969 19.5859C170.969 18.5032 170.969 17.4183 170.969 16.3356C170.969 16.0817 171.053 16.0061 171.294 16.0061C173.503 16.0145 175.712 16.0145 177.922 16.0061C178.84 16.0192 179.736 15.7098 180.46 15.129C182.2 13.7357 182.394 10.9323 180.858 9.30818C180.482 8.90123 180.028 8.57915 179.525 8.36239C179.021 8.14564 178.48 8.03898 177.934 8.04916C175.735 8.04916 173.534 8.04916 171.333 8.04916C170.978 8.04916 170.973 8.04916 170.973 7.68614V4.45677C170.973 4.10005 170.973 4.09375 171.335 4.09375H174.976Z" fill="#DADCE0"/>
<path d="M188.145 12.0255V4.7862C188.145 4.4064 188.145 4.4043 188.51 4.4043C189.582 4.4043 190.653 4.4043 191.724 4.4043C191.96 4.4043 192.05 4.47564 192.05 4.73164C192.05 9.59144 192.05 14.4505 192.05 19.3089C192.05 19.5587 191.974 19.6447 191.728 19.6426C190.64 19.6314 189.552 19.6314 188.464 19.6426C188.196 19.6426 188.137 19.5398 188.139 19.2859C188.153 16.8686 188.155 14.4484 188.145 12.0255Z" fill="#DADCE0"/>
<path d="M106.393 9.86959C106.349 9.98277 106.334 10.1056 106.35 10.2263C106.35 13.2088 106.35 16.1899 106.35 19.1695C106.35 19.6396 106.35 19.6396 105.883 19.6396H102.68C102.321 19.6396 102.316 19.6396 102.316 19.2807C102.316 15.41 102.316 11.5378 102.316 7.66421C102.314 7.00164 102.505 6.35354 102.865 5.80402C103.225 5.25452 103.737 4.82898 104.335 4.58263C104.933 4.33628 105.589 4.2805 106.218 4.42252C106.847 4.56455 107.421 4.89782 107.863 5.3791C109.495 7.19627 111.103 9.03444 112.721 10.8642C113.635 11.8994 114.551 12.9332 115.469 13.9656C115.518 14.0201 115.552 14.0978 115.646 14.1083C115.722 14.0076 115.687 13.8984 115.687 13.783C115.687 10.8201 115.687 7.85655 115.687 4.89228C115.687 4.40965 115.687 4.40965 116.167 4.40965H119.378C119.726 4.40965 119.729 4.40965 119.729 4.77897C119.729 8.66932 119.729 12.5597 119.729 16.45C119.724 17.1148 119.523 17.7625 119.152 18.3068C118.781 18.8511 118.258 19.2662 117.652 19.4969C117.05 19.7258 116.396 19.7662 115.772 19.6132C115.147 19.4601 114.581 19.1202 114.145 18.6365L109.104 12.9416L106.582 10.092L106.393 9.86959Z" fill="#DADCE0"/>
<path d="M121.709 11.9786V4.45384C121.709 4.03417 121.709 4.03417 122.117 4.03417C124.64 4.03417 127.164 4.03417 129.688 4.03417C131.686 4.00222 133.619 4.76653 135.082 6.16712C136.544 7.56772 137.424 9.496 137.536 11.5484C137.631 13.2591 137.186 14.9556 136.266 16.3847C135.347 17.8137 134.003 18.8989 132.436 19.4781C131.629 19.7854 130.776 19.9467 129.916 19.9545C127.299 19.9545 124.681 19.9545 122.064 19.9545C121.723 19.9545 121.709 19.9397 121.709 19.5809C121.707 17.0489 121.707 14.5148 121.709 11.9786ZM125.634 12.0016C125.634 13.2082 125.634 14.4148 125.634 15.6192C125.634 15.8668 125.701 15.9528 125.95 15.9508C127.217 15.9403 128.482 15.9361 129.749 15.9508C130.767 15.9711 131.751 15.5745 132.485 14.8482C133.22 14.122 133.643 13.1256 133.663 12.0782C133.682 11.0309 133.297 10.0183 132.591 9.26336C131.885 8.50839 130.916 8.07283 129.898 8.05252C128.588 8.05252 127.28 8.05252 125.971 8.05252C125.64 8.05252 125.638 8.05252 125.638 8.41134L125.634 12.0016Z" fill="#DADCE0"/>
</g>
<defs>
<clipPath id="clip0_1838_10317">
<rect width="116" height="16" fill="white" transform="translate(96 4)"/>
</clipPath>
</defs>
</svg>
