<svg width="24" height="24" viewBox="0 0 24 24" fill="none" xmlns="http://www.w3.org/2000/svg">
<path d="M6.91534 15.2184C6.91534 16.1545 6.15649 16.9133 5.22043 16.9133C4.28437 16.9133 3.52551 16.1545 3.52551 15.2184V12.1676C3.52551 11.2315 4.28437 10.4727 5.22043 10.4727C6.15649 10.4727 6.91534 11.2315 6.91534 12.1676V15.2184Z" stroke="white" stroke-width="2" stroke-miterlimit="10" stroke-linecap="round" stroke-linejoin="round"/>
<path d="M20.4746 15.2184C20.4746 16.1545 19.7158 16.9133 18.7797 16.9133C17.8436 16.9133 17.0848 16.1545 17.0848 15.2184V12.1676C17.0848 11.2315 17.8436 10.4727 18.7797 10.4727C19.7158 10.4727 20.4746 11.2315 20.4746 12.1676V15.2184Z" stroke="white" stroke-width="2" stroke-miterlimit="10" stroke-linecap="round" stroke-linejoin="round"/>
<path d="M3.52545 12.1695V10.4746C3.52545 5.79419 7.31965 2 12 2C16.6804 2 20.4746 5.79419 20.4746 10.4746V12.1695" stroke="white" stroke-width="2" stroke-miterlimit="10" stroke-linecap="round" stroke-linejoin="round"/>
<path d="M20.4746 15.2188V16.9137C20.4746 18.7858 18.9569 20.3035 17.0848 20.3035H13.6949" stroke="white" stroke-width="2" stroke-miterlimit="10" stroke-linecap="round" stroke-linejoin="round"/>
<path d="M12.0001 21.9992C12.9362 21.9992 13.695 21.2404 13.695 20.3043C13.695 19.3682 12.9362 18.6094 12.0001 18.6094C11.064 18.6094 10.3052 19.3682 10.3052 20.3043C10.3052 21.2404 11.064 21.9992 12.0001 21.9992Z" stroke="white" stroke-width="2" stroke-miterlimit="10" stroke-linecap="round" stroke-linejoin="round"/>
</svg>
