<svg xmlns="http://www.w3.org/2000/svg" width="35" height="11" viewBox="0 0 35 11" fill="none">
    <g clip-path="url(#clip0_1735_6777)">
        <path d="M18.1012 3.50256C18.0812 5.02878 19.5043 5.88042 20.5763 6.38681C21.6777 6.90633 22.0477 7.23951 22.0433 7.70416C22.0351 8.41519 21.1647 8.72902 20.3503 8.74121C18.9294 8.76255 18.1032 8.36933 17.4464 8.07193L16.9345 10.3937C17.5935 10.6881 18.8137 10.9448 20.0791 10.9561C23.0493 10.9561 24.9925 9.5348 25.003 7.33122C25.0146 4.53457 21.0124 4.37978 21.0398 3.12975C21.0492 2.75072 21.4223 2.34624 22.2399 2.24339C22.6446 2.19144 23.7617 2.15168 25.0283 2.71706L25.5254 0.470671C24.8443 0.230261 23.9688 5.62668e-05 22.8789 5.62668e-05C20.0833 5.62668e-05 18.117 1.44066 18.1012 3.50256V3.50256ZM30.3021 0.19355C29.7597 0.19355 29.3027 0.500224 29.0987 0.970839L24.8559 10.7911H27.8239L28.4145 9.20878H32.0414L32.384 10.7911H35L32.7172 0.19355H30.3021V0.19355ZM30.7173 3.05633L31.5738 7.03581H29.228L30.7173 3.05633V3.05633ZM14.5026 0.193682L12.163 10.7909H14.9913L17.3298 0.193418H14.5026V0.193682ZM10.3186 0.193418L7.37475 7.40663L6.18393 1.27354C6.0442 0.588887 5.4924 0.19355 4.87963 0.19355H0.0674023L0 0.501285C0.98793 0.709092 2.11039 1.04426 2.79043 1.40289C3.2066 1.62196 3.32527 1.81347 3.46199 2.33404L5.71744 10.7911H8.70625L13.2885 0.19355H10.3186" fill="#254AA5"/>
    </g>
    <defs>
        <clipPath id="clip0_1735_6777">
            <rect width="35" height="11" fill="white"/>
        </clipPath>
    </defs>
</svg>